<?xml version="1.0" encoding="UTF-8"?>
<svg width="24" height="24" version="1.1" viewBox="0 0 24 24" xmlns="http://www.w3.org/2000/svg">
 <path d="M12,4C11.45,4 11,4.45 11,5V6H10V5A2,2 0 0,1 12,3A2,2 0 0,1 14,5V6H13V5C13,4.45 12.55,4 12,4M7,14A2,2 0 0,1 5,12A2,2 0 0,1 7,10A2,2 0 0,1 9,12A2,2 0 0,1 7,14M12.5,11H11.5A1.5,1.5 0 0,1 10,9.5A1.5,1.5 0 0,1 11.5,8H12.5A1.5,1.5 0 0,1 14,9.5A1.5,1.5 0 0,1 12.5,11M17,14A2,2 0 0,1 15,12A2,2 0 0,1 17,10A2,2 0 0,1 19,12A2,2 0 0,1 17,14M14.5,19H9.5A1.5,1.5 0 0,1 8,17.5A1.5,1.5 0 0,1 9.5,16H14.5A1.5,1.5 0 0,1 16,17.5A1.5,1.5 0 0,1 14.5,19M12,20V21A1,1 0 0,1 11,22A1,1 0 0,1 10,21V20H12Z" fill="#ff3864"/>
</svg>